<svg width="124" height="241" viewBox="0 0 124 241" fill="none" xmlns="http://www.w3.org/2000/svg">
<path d="M2.60542 100.876C2.60542 93.9229 2.60542 90.4464 4.76477 88.2863C6.92411 86.1262 10.3995 86.1262 17.3503 86.1262C24.3012 86.1262 27.7766 86.1262 29.9359 88.2863C32.0953 90.4464 32.0953 93.9229 32.0953 100.876V226.25C32.0953 233.203 32.0953 236.68 29.9359 238.84C27.7766 241 24.3012 241 17.3503 241C10.3995 241 6.92411 241 4.76477 238.84C2.60542 236.68 2.60542 233.203 2.60542 226.25V100.876Z" fill="#2F2F2F"/>
<path d="M2.60542 159.876C2.60542 152.922 2.60542 149.446 4.76477 147.286C6.92411 145.126 10.3995 145.126 17.3503 145.126H105.82C112.771 145.126 116.246 145.126 118.405 147.286C120.565 149.446 120.565 152.922 120.565 159.876C120.565 166.829 120.565 170.305 118.405 172.465C116.246 174.626 112.771 174.626 105.82 174.626H17.3503C10.3995 174.626 6.92411 174.626 4.76477 172.465C2.60542 170.305 2.60542 166.829 2.60542 159.876Z" fill="#2F2F2F"/>
<path d="M46.8402 159.876L46.8402 71.3763H76.33V159.876H46.8402Z" fill="#2F2F2F"/>
<path d="M63.5625 90.3083C57.4966 93.8116 54.4636 95.5633 51.5139 94.7727C48.5642 93.982 46.8265 90.9712 43.3511 84.9496L7.09135 22.1248C1.41603 12.2916 -1.42163 7.37494 0.706611 3.68747C2.83486 7.15256e-07 8.51018 3.21757e-07 19.8608 2.82265e-08L20.9496 0C25.1543 -1.08664e-07 27.2567 -1.19209e-07 28.9806 1.00821C30.7046 2.01643 31.7359 3.84908 33.7985 7.51439L69.1077 70.2593C72.4836 76.2584 74.1716 79.2579 73.3714 82.1817C72.5712 85.1054 69.5683 86.8397 63.5625 90.3083Z" fill="#2F2F2F"/>
<path d="M60.4375 90.3083C66.5034 93.8116 69.5364 95.5633 72.4861 94.7727C75.4358 93.982 77.1735 90.9712 80.6489 84.9496L116.909 22.1248C122.584 12.2916 125.422 7.37494 123.293 3.68747C121.165 7.15256e-07 115.49 3.21757e-07 104.139 2.82265e-08L103.05 0C98.8457 -1.08664e-07 96.7433 -1.19209e-07 95.0194 1.00821C93.2954 2.01643 92.2641 3.84908 90.2015 7.51439L54.8923 70.2593C51.5164 76.2584 49.8284 79.2579 50.6286 82.1817C51.4288 85.1054 54.4317 86.8397 60.4375 90.3083Z" fill="#2F2F2F"/>
<path d="M91.075 100.876C91.075 93.9229 91.075 90.4464 93.2343 88.2863C95.3937 86.1262 98.8691 86.1262 105.82 86.1262C112.771 86.1262 116.246 86.1262 118.405 88.2863C120.565 90.4464 120.565 93.9229 120.565 100.876V226.25C120.565 233.203 120.565 236.68 118.405 238.84C116.246 241 112.771 241 105.82 241C98.8691 241 95.3937 241 93.2343 238.84C91.075 236.68 91.075 233.203 91.075 226.25V100.876Z" fill="#2F2F2F"/>
</svg>
